<svg xmlns="http://www.w3.org/2000/svg" version="1.1" xmlns:xlink="http://www.w3.org/1999/xlink" xmlns:svgjs="http://svgjs.dev/svgjs" width="18" height="48"><svg width="18" height="48" viewBox="0 0 18 48" fill="none" xmlns="http://www.w3.org/2000/svg">
<path d="M1.6196 18.6523C1.6196 18.6523 0.0131303 20.7666 4.10117 22.9288C8.1924 25.091 12.6062 23.3472 12.6062 23.3472L14.3149 22.1879C14.3149 22.1879 19.0672 17.0778 15.3561 13.9032L13.015 12.7949L9.26552 11.3897L4.65689 9.76404L2.57135 8.42904C2.57135 8.42904 -0.405255 4.56457 2.29988 1.51451C2.29988 1.51451 3.64446 -0.296368 7.1672 0.0421727C7.1672 0.0421727 -3.45851 1.86582 4.0852 8.19909L7.06181 9.50215L11.1562 11.1118L14.5065 12.3223C14.5065 12.3223 21.3029 15.2318 15.9629 21.0253C10.6197 26.822 9.49547 28.1251 9.51782 30.8717H7.82512C7.82512 30.8717 8.67467 28.3678 2.67674 22.4977C2.67674 22.4977 -1.68277 18.6491 0.725344 15.5097C0.725344 15.5097 3.89677 13.3826 4.33112 17.1417C4.33112 17.1417 4.7527 19.0388 1.6228 18.6491L1.6196 18.6523Z" fill="#1D1D1D"></path>
<path d="M14.7748 12.8173L12.8809 10.7318L12.4401 9.83112C12.4401 9.83112 11.8333 8.67177 12.3794 7.73919C12.4912 7.54756 12.603 7.33997 12.7563 7.18028C13.6857 6.21256 13.8486 6.0912 13.8486 6.0912L15.7744 3.77571C15.7744 3.77571 16.608 2.97726 15.8926 2.10855L15.5349 1.73488C15.5349 1.73488 15.1963 1.01628 16.2758 0.923658C17.3585 0.831039 16.7868 2.61956 16.7868 2.61956L16.0235 3.71822L14.9281 4.89034L12.7371 7.33038C12.7371 7.33038 11.9515 8.64622 13.1651 10.4954L14.5672 11.757L16.2822 13.4656L14.7748 12.8173Z" fill="#1D1D1D"></path>
<path d="M9.49542 24.6566H7.82507V46.7353H9.49542V24.6566Z" fill="#1D1D1D"></path>
<path d="M8.65868 48C11.9377 48 14.5959 47.6282 14.5959 47.1696C14.5959 46.711 11.9377 46.3392 8.65868 46.3392C5.37963 46.3392 2.72144 46.711 2.72144 47.1696C2.72144 47.6282 5.37963 48 8.65868 48Z" fill="#1D1D1D"></path>
</svg><style>@media (prefers-color-scheme: light) { :root { filter: none; } }
@media (prefers-color-scheme: dark) { :root { filter: none; } }
</style></svg>